<svg width="32" height="32" viewBox="0 0 32 32" fill="none" xmlns="http://www.w3.org/2000/svg">
<g clip-path="url(#clip0_274_30)">
<path d="M1.33325 1.33337H6.66658L10.2399 19.1867C10.3618 19.8006 10.6958 20.352 11.1833 20.7444C11.6708 21.1369 12.2808 21.3454 12.9066 21.3334H25.8666C26.4923 21.3454 27.1023 21.1369 27.5899 20.7444C28.0774 20.352 28.4113 19.8006 28.5332 19.1867L30.6666 8.00004H7.99992M13.3333 28C13.3333 28.7364 12.7363 29.3334 11.9999 29.3334C11.2635 29.3334 10.6666 28.7364 10.6666 28C10.6666 27.2637 11.2635 26.6667 11.9999 26.6667C12.7363 26.6667 13.3333 27.2637 13.3333 28ZM27.9999 28C27.9999 28.7364 27.403 29.3334 26.6666 29.3334C25.9302 29.3334 25.3333 28.7364 25.3333 28C25.3333 27.2637 25.9302 26.6667 26.6666 26.6667C27.403 26.6667 27.9999 27.2637 27.9999 28Z" stroke="#E7E5E4" stroke-width="4" stroke-linecap="round" stroke-linejoin="round"/>
</g>
<defs>
<clipPath id="clip0_274_30">
<rect width="32" height="32" fill="white"/>
</clipPath>
</defs>
</svg>
